<svg width="72" height="18" viewBox="0 0 72 18" fill="none" xmlns="http://www.w3.org/2000/svg">
<path d="M13.0312 12.1602L14.5898 13.5664C12.6133 16.0273 10.1211 17.2578 7.11328 17.2578C5.71484 17.2578 4.48828 16.9766 3.43359 16.4141C2.37891 15.8438 1.55078 15.0078 0.949219 13.9062C0.355469 12.7969 0.0585938 11.5781 0.0585938 10.25C0.0585938 8.6875 0.472656 7.16016 1.30078 5.66797C2.12891 4.16797 3.33203 2.92188 4.91016 1.92969C6.48828 0.9375 8.32422 0.441406 10.418 0.441406C12.4258 0.441406 13.9922 0.992188 15.1172 2.09375L15.4453 0.699219H17.3672L16.3242 5.1875H14.4023C13.9883 3.34375 12.5977 2.42188 10.2305 2.42188C8.79297 2.42188 7.48438 2.80859 6.30469 3.58203C5.125 4.35547 4.19922 5.39062 3.52734 6.6875C2.86328 7.97656 2.53125 9.26562 2.53125 10.5547C2.53125 11.9062 2.98047 13.0352 3.87891 13.9414C4.77734 14.8477 5.91797 15.3008 7.30078 15.3008C9.33984 15.3008 11.25 14.2539 13.0312 12.1602ZM20.2969 1.75391C20.2969 1.38672 20.4258 1.07422 20.6836 0.816406C20.9414 0.550781 21.25 0.417969 21.6094 0.417969C21.9844 0.417969 22.2969 0.550781 22.5469 0.816406C22.7969 1.08203 22.9219 1.39453 22.9219 1.75391C22.9219 2.12109 22.793 2.4375 22.5352 2.70312C22.2852 2.96094 21.9766 3.08984 21.6094 3.08984C21.2578 3.08984 20.9492 2.96094 20.6836 2.70312C20.4258 2.4375 20.2969 2.12109 20.2969 1.75391ZM17.5195 15.0898L19.2891 7.56641H17.7305L18.1758 5.65625H21.8555L19.6406 15.0898H21.293L20.8477 17H15.8203L16.2656 15.0898H17.5195ZM22.6406 17L23.6836 12.5234H25.6641L25.3242 13.9883C26.1523 14.9258 27.1758 15.3945 28.3945 15.3945C29.2383 15.3945 29.9453 15.1523 30.5156 14.668C31.0859 14.1758 31.3711 13.5781 31.3711 12.875C31.3711 12.2578 31.1797 11.7227 30.7969 11.2695C30.4141 10.8086 29.6641 10.2031 28.5469 9.45312C27.3672 8.64844 26.543 7.90234 26.0742 7.21484C25.6133 6.51953 25.3828 5.71484 25.3828 4.80078C25.3828 3.49609 25.8359 2.44531 26.7422 1.64844C27.6562 0.84375 28.8242 0.441406 30.2461 0.441406C31.6523 0.441406 32.8008 0.898438 33.6914 1.8125L33.9375 0.699219H35.9062L34.875 5.11719H32.9062L33.1992 3.875C32.8945 3.39844 32.4609 3.01172 31.8984 2.71484C31.3438 2.41797 30.7695 2.26953 30.1758 2.26953C29.418 2.26953 28.7852 2.47656 28.2773 2.89062C27.7695 3.30469 27.5156 3.85547 27.5156 4.54297C27.5156 5.05078 27.6797 5.52734 28.0078 5.97266C28.3359 6.41016 28.9766 6.94922 29.9297 7.58984C30.9141 8.24609 31.625 8.77344 32.0625 9.17188C32.5078 9.5625 32.8672 10.043 33.1406 10.6133C33.4141 11.1758 33.5508 11.8125 33.5508 12.5234C33.5508 13.9531 33.043 15.1016 32.0273 15.9688C31.0195 16.8281 29.7227 17.2578 28.1367 17.2578C26.8555 17.2578 25.75 16.8828 24.8203 16.1328L24.6211 17H22.6406ZM38.3672 0.699219H43.6172L43.1602 2.60938H41.7422L39.7852 10.9648C39.5195 12.0898 39.3867 12.8281 39.3867 13.1797C39.3867 13.8672 39.6445 14.4062 40.1602 14.7969C40.6758 15.1875 41.3047 15.3828 42.0469 15.3828C42.8906 15.3828 43.5664 15.2148 44.0742 14.8789C44.5898 14.543 44.9844 14.0703 45.2578 13.4609C45.5391 12.8516 45.8203 11.9531 46.1016 10.7656L48.0117 2.60938H46.582L47.0273 0.699219H52.1953L51.75 2.60938H50.3789L48.4219 10.9648C48.0312 12.6211 47.6094 13.8594 47.1562 14.6797C46.7031 15.4922 46.0273 16.125 45.1289 16.5781C44.2305 17.0312 43.1562 17.2578 41.9062 17.2578C40.2656 17.2578 39.0469 16.8984 38.25 16.1797C37.4531 15.4609 37.0547 14.5469 37.0547 13.4375C37.0547 12.8281 37.1992 11.9141 37.4883 10.6953L39.375 2.60938H37.9219L38.3672 0.699219ZM51.8438 15.0898L54.7734 2.60938H53.2852L53.7305 0.699219H58.6172L60.1289 11.9961L66.9375 0.699219H71.9648L71.5195 2.60938H70.0547L67.125 15.0898H68.7539L68.3086 17H63.2227L63.668 15.0898H65.1914L68.0508 2.60938L59.25 17.082H58.7695L56.7773 2.60938L53.8008 15.0898H55.2422L54.7734 17H50.0156L50.4609 15.0898H51.8438Z" fill="black"/>
</svg>
